<?xml version="1.0" encoding="UTF-8" standalone="yes"?><svg xmlns="http://www.w3.org/2000/svg" xmlns:xlink="http://www.w3.org/1999/xlink" height="105px" style="width:1861px;height:105px;" version="1.1" viewBox="0 0 1861 105" width="1861px"><defs><filter height="300%" id="f1" width="300%" x="-1" y="-1"><feGaussianBlur result="blurOut" stdDeviation="2.0"/><feColorMatrix in="blurOut" result="blurOut2" type="matrix" values="0 0 0 0 0 0 0 0 0 0 0 0 0 0 0 0 0 0 .4 0"/><feOffset dx="4.0" dy="4.0" in="blurOut2" result="blurOut3"/><feBlend in="SourceGraphic" in2="blurOut3" mode="normal"/></filter></defs><g><rect fill="#FEFECE" filter="url(#f1)" height="32" style="stroke: #A80036; stroke-width: 1.5;" width="58" x="6" y="64.1465"/><ellipse cx="21" cy="80.1465" fill="#ADD1B2" rx="11" ry="11" style="stroke: #A80036; stroke-width: 1.0;"/><path d="M23.3438,75.8184 C22.4063,75.3809 21.8125,75.2403 20.9375,75.2403 C18.3125,75.2403 16.3125,77.3184 16.3125,80.0371 L16.3125,81.1621 C16.3125,83.7403 18.4219,85.6309 21.3125,85.6309 C22.5313,85.6309 23.6875,85.334 24.4375,84.7871 C25.0156,84.3809 25.3438,83.9278 25.3438,83.5371 C25.3438,83.084 24.9531,82.6934 24.4844,82.6934 C24.2656,82.6934 24.0625,82.7715 23.875,82.959 C23.4219,83.4434 23.4219,83.4434 23.2344,83.5371 C22.8125,83.8028 22.125,83.9278 21.3594,83.9278 C19.3125,83.9278 18.0156,82.834 18.0156,81.1309 L18.0156,80.0371 C18.0156,78.2559 19.2656,76.9434 21,76.9434 C21.5781,76.9434 22.1875,77.0996 22.6563,77.3496 C23.1406,77.6309 23.3125,77.8496 23.4063,78.2559 C23.4688,78.6621 23.5,78.7871 23.6406,78.9121 C23.7813,79.0528 24.0156,79.1621 24.2344,79.1621 C24.5,79.1621 24.7656,79.0215 24.9375,78.8028 C25.0469,78.6465 25.0781,78.459 25.0781,78.0371 L25.0781,76.6153 C25.0781,76.1778 25.0625,76.0528 24.9688,75.8965 C24.8125,75.6309 24.5313,75.4903 24.2344,75.4903 C23.9375,75.4903 23.7344,75.584 23.5156,75.8965 L23.3438,75.8184 Z "/><text fill="#000000" font-family="sans-serif" font-size="12" lengthAdjust="spacingAndGlyphs" textLength="26" x="35" y="84.1545">User</text><rect fill="#FEFECE" filter="url(#f1)" height="32" style="stroke: #A80036; stroke-width: 1.5;" width="63" x="1789.5" y="64.1465"/><ellipse cx="1804.5" cy="80.1465" fill="#ADD1B2" rx="11" ry="11" style="stroke: #A80036; stroke-width: 1.0;"/><path d="M1806.8438,75.8184 C1805.9063,75.3809 1805.3125,75.2403 1804.4375,75.2403 C1801.8125,75.2403 1799.8125,77.3184 1799.8125,80.0371 L1799.8125,81.1621 C1799.8125,83.7403 1801.9219,85.6309 1804.8125,85.6309 C1806.0313,85.6309 1807.1875,85.334 1807.9375,84.7871 C1808.5156,84.3809 1808.8438,83.9278 1808.8438,83.5371 C1808.8438,83.084 1808.4531,82.6934 1807.9844,82.6934 C1807.7656,82.6934 1807.5625,82.7715 1807.375,82.959 C1806.9219,83.4434 1806.9219,83.4434 1806.7344,83.5371 C1806.3125,83.8028 1805.625,83.9278 1804.8594,83.9278 C1802.8125,83.9278 1801.5156,82.834 1801.5156,81.1309 L1801.5156,80.0371 C1801.5156,78.2559 1802.7656,76.9434 1804.5,76.9434 C1805.0781,76.9434 1805.6875,77.0996 1806.1563,77.3496 C1806.6406,77.6309 1806.8125,77.8496 1806.9063,78.2559 C1806.9688,78.6621 1807,78.7871 1807.1406,78.9121 C1807.2813,79.0528 1807.5156,79.1621 1807.7344,79.1621 C1808,79.1621 1808.2656,79.0215 1808.4375,78.8028 C1808.5469,78.6465 1808.5781,78.459 1808.5781,78.0371 L1808.5781,76.6153 C1808.5781,76.1778 1808.5625,76.0528 1808.4688,75.8965 C1808.3125,75.6309 1808.0313,75.4903 1807.7344,75.4903 C1807.4375,75.4903 1807.2344,75.584 1807.0156,75.8965 L1806.8438,75.8184 Z "/><text fill="#000000" font-family="sans-serif" font-size="12" lengthAdjust="spacingAndGlyphs" textLength="31" x="1818.5" y="84.1545">Login</text><rect fill="#FEFECE" filter="url(#f1)" height="32" style="stroke: #A80036; stroke-width: 1.5;" width="89" x="309.5" y="64.1465"/><ellipse cx="324.5" cy="80.1465" fill="#ADD1B2" rx="11" ry="11" style="stroke: #A80036; stroke-width: 1.0;"/><path d="M326.8438,75.8184 C325.9063,75.3809 325.3125,75.2403 324.4375,75.2403 C321.8125,75.2403 319.8125,77.3184 319.8125,80.0371 L319.8125,81.1621 C319.8125,83.7403 321.9219,85.6309 324.8125,85.6309 C326.0313,85.6309 327.1875,85.334 327.9375,84.7871 C328.5156,84.3809 328.8438,83.9278 328.8438,83.5371 C328.8438,83.084 328.4531,82.6934 327.9844,82.6934 C327.7656,82.6934 327.5625,82.7715 327.375,82.959 C326.9219,83.4434 326.9219,83.4434 326.7344,83.5371 C326.3125,83.8028 325.625,83.9278 324.8594,83.9278 C322.8125,83.9278 321.5156,82.834 321.5156,81.1309 L321.5156,80.0371 C321.5156,78.2559 322.7656,76.9434 324.5,76.9434 C325.0781,76.9434 325.6875,77.0996 326.1563,77.3496 C326.6406,77.6309 326.8125,77.8496 326.9063,78.2559 C326.9688,78.6621 327,78.7871 327.1406,78.9121 C327.2813,79.0528 327.5156,79.1621 327.7344,79.1621 C328,79.1621 328.2656,79.0215 328.4375,78.8028 C328.5469,78.6465 328.5781,78.459 328.5781,78.0371 L328.5781,76.6153 C328.5781,76.1778 328.5625,76.0528 328.4688,75.8965 C328.3125,75.6309 328.0313,75.4903 327.7344,75.4903 C327.4375,75.4903 327.2344,75.584 327.0156,75.8965 L326.8438,75.8184 Z "/><text fill="#000000" font-family="sans-serif" font-size="12" lengthAdjust="spacingAndGlyphs" textLength="57" x="338.5" y="84.1545">TeamRole</text><rect fill="#FEFECE" filter="url(#f1)" height="32" style="stroke: #A80036; stroke-width: 1.5;" width="83" x="931.5" y="64.1465"/><ellipse cx="946.5" cy="80.1465" fill="#ADD1B2" rx="11" ry="11" style="stroke: #A80036; stroke-width: 1.0;"/><path d="M948.8438,75.8184 C947.9063,75.3809 947.3125,75.2403 946.4375,75.2403 C943.8125,75.2403 941.8125,77.3184 941.8125,80.0371 L941.8125,81.1621 C941.8125,83.7403 943.9219,85.6309 946.8125,85.6309 C948.0313,85.6309 949.1875,85.334 949.9375,84.7871 C950.5156,84.3809 950.8438,83.9278 950.8438,83.5371 C950.8438,83.084 950.4531,82.6934 949.9844,82.6934 C949.7656,82.6934 949.5625,82.7715 949.375,82.959 C948.9219,83.4434 948.9219,83.4434 948.7344,83.5371 C948.3125,83.8028 947.625,83.9278 946.8594,83.9278 C944.8125,83.9278 943.5156,82.834 943.5156,81.1309 L943.5156,80.0371 C943.5156,78.2559 944.7656,76.9434 946.5,76.9434 C947.0781,76.9434 947.6875,77.0996 948.1563,77.3496 C948.6406,77.6309 948.8125,77.8496 948.9063,78.2559 C948.9688,78.6621 949,78.7871 949.1406,78.9121 C949.2813,79.0528 949.5156,79.1621 949.7344,79.1621 C950,79.1621 950.2656,79.0215 950.4375,78.8028 C950.5469,78.6465 950.5781,78.459 950.5781,78.0371 L950.5781,76.6153 C950.5781,76.1778 950.5625,76.0528 950.4688,75.8965 C950.3125,75.6309 950.0313,75.4903 949.7344,75.4903 C949.4375,75.4903 949.2344,75.584 949.0156,75.8965 L948.8438,75.8184 Z "/><text fill="#000000" font-family="sans-serif" font-size="12" lengthAdjust="spacingAndGlyphs" textLength="51" x="960.5" y="84.1545">WorkItem</text><rect fill="#FEFECE" filter="url(#f1)" height="32" style="stroke: #A80036; stroke-width: 1.5;" width="63" x="99.5" y="64.1465"/><ellipse cx="114.5" cy="80.1465" fill="#ADD1B2" rx="11" ry="11" style="stroke: #A80036; stroke-width: 1.0;"/><path d="M116.8438,75.8184 C115.9063,75.3809 115.3125,75.2403 114.4375,75.2403 C111.8125,75.2403 109.8125,77.3184 109.8125,80.0371 L109.8125,81.1621 C109.8125,83.7403 111.9219,85.6309 114.8125,85.6309 C116.0313,85.6309 117.1875,85.334 117.9375,84.7871 C118.5156,84.3809 118.8438,83.9278 118.8438,83.5371 C118.8438,83.084 118.4531,82.6934 117.9844,82.6934 C117.7656,82.6934 117.5625,82.7715 117.375,82.959 C116.9219,83.4434 116.9219,83.4434 116.7344,83.5371 C116.3125,83.8028 115.625,83.9278 114.8594,83.9278 C112.8125,83.9278 111.5156,82.834 111.5156,81.1309 L111.5156,80.0371 C111.5156,78.2559 112.7656,76.9434 114.5,76.9434 C115.0781,76.9434 115.6875,77.0996 116.1563,77.3496 C116.6406,77.6309 116.8125,77.8496 116.9063,78.2559 C116.9688,78.6621 117,78.7871 117.1406,78.9121 C117.2813,79.0528 117.5156,79.1621 117.7344,79.1621 C118,79.1621 118.2656,79.0215 118.4375,78.8028 C118.5469,78.6465 118.5781,78.459 118.5781,78.0371 L118.5781,76.6153 C118.5781,76.1778 118.5625,76.0528 118.4688,75.8965 C118.3125,75.6309 118.0313,75.4903 117.7344,75.4903 C117.4375,75.4903 117.2344,75.584 117.0156,75.8965 L116.8438,75.8184 Z "/><text fill="#000000" font-family="sans-serif" font-size="12" lengthAdjust="spacingAndGlyphs" textLength="31" x="128.5" y="84.1545">Team</text><rect fill="#FEFECE" filter="url(#f1)" height="32" style="stroke: #A80036; stroke-width: 1.5;" width="93" x="433.5" y="64.1465"/><ellipse cx="448.5" cy="80.1465" fill="#ADD1B2" rx="11" ry="11" style="stroke: #A80036; stroke-width: 1.0;"/><path d="M450.8438,75.8184 C449.9063,75.3809 449.3125,75.2403 448.4375,75.2403 C445.8125,75.2403 443.8125,77.3184 443.8125,80.0371 L443.8125,81.1621 C443.8125,83.7403 445.9219,85.6309 448.8125,85.6309 C450.0313,85.6309 451.1875,85.334 451.9375,84.7871 C452.5156,84.3809 452.8438,83.9278 452.8438,83.5371 C452.8438,83.084 452.4531,82.6934 451.9844,82.6934 C451.7656,82.6934 451.5625,82.7715 451.375,82.959 C450.9219,83.4434 450.9219,83.4434 450.7344,83.5371 C450.3125,83.8028 449.625,83.9278 448.8594,83.9278 C446.8125,83.9278 445.5156,82.834 445.5156,81.1309 L445.5156,80.0371 C445.5156,78.2559 446.7656,76.9434 448.5,76.9434 C449.0781,76.9434 449.6875,77.0996 450.1563,77.3496 C450.6406,77.6309 450.8125,77.8496 450.9063,78.2559 C450.9688,78.6621 451,78.7871 451.1406,78.9121 C451.2813,79.0528 451.5156,79.1621 451.7344,79.1621 C452,79.1621 452.2656,79.0215 452.4375,78.8028 C452.5469,78.6465 452.5781,78.459 452.5781,78.0371 L452.5781,76.6153 C452.5781,76.1778 452.5625,76.0528 452.4688,75.8965 C452.3125,75.6309 452.0313,75.4903 451.7344,75.4903 C451.4375,75.4903 451.2344,75.584 451.0156,75.8965 L450.8438,75.8184 Z "/><text fill="#000000" font-family="sans-serif" font-size="12" lengthAdjust="spacingAndGlyphs" textLength="61" x="462.5" y="84.1545">Permission</text><rect fill="#FEFECE" filter="url(#f1)" height="32" style="stroke: #A80036; stroke-width: 1.5;" width="70" x="562" y="64.1465"/><ellipse cx="577" cy="80.1465" fill="#ADD1B2" rx="11" ry="11" style="stroke: #A80036; stroke-width: 1.0;"/><path d="M579.3438,75.8184 C578.4063,75.3809 577.8125,75.2403 576.9375,75.2403 C574.3125,75.2403 572.3125,77.3184 572.3125,80.0371 L572.3125,81.1621 C572.3125,83.7403 574.4219,85.6309 577.3125,85.6309 C578.5313,85.6309 579.6875,85.334 580.4375,84.7871 C581.0156,84.3809 581.3438,83.9278 581.3438,83.5371 C581.3438,83.084 580.9531,82.6934 580.4844,82.6934 C580.2656,82.6934 580.0625,82.7715 579.875,82.959 C579.4219,83.4434 579.4219,83.4434 579.2344,83.5371 C578.8125,83.8028 578.125,83.9278 577.3594,83.9278 C575.3125,83.9278 574.0156,82.834 574.0156,81.1309 L574.0156,80.0371 C574.0156,78.2559 575.2656,76.9434 577,76.9434 C577.5781,76.9434 578.1875,77.0996 578.6563,77.3496 C579.1406,77.6309 579.3125,77.8496 579.4063,78.2559 C579.4688,78.6621 579.5,78.7871 579.6406,78.9121 C579.7813,79.0528 580.0156,79.1621 580.2344,79.1621 C580.5,79.1621 580.7656,79.0215 580.9375,78.8028 C581.0469,78.6465 581.0781,78.459 581.0781,78.0371 L581.0781,76.6153 C581.0781,76.1778 581.0625,76.0528 580.9688,75.8965 C580.8125,75.6309 580.5313,75.4903 580.2344,75.4903 C579.9375,75.4903 579.7344,75.584 579.5156,75.8965 L579.3438,75.8184 Z "/><text fill="#000000" font-family="sans-serif" font-size="12" lengthAdjust="spacingAndGlyphs" textLength="38" x="591" y="84.1545">Project</text><rect fill="#FEFECE" filter="url(#f1)" height="32" style="stroke: #A80036; stroke-width: 1.5;" width="110" x="1398" y="64.1465"/><ellipse cx="1413" cy="80.1465" fill="#ADD1B2" rx="11" ry="11" style="stroke: #A80036; stroke-width: 1.0;"/><path d="M1415.3438,75.8184 C1414.4063,75.3809 1413.8125,75.2403 1412.9375,75.2403 C1410.3125,75.2403 1408.3125,77.3184 1408.3125,80.0371 L1408.3125,81.1621 C1408.3125,83.7403 1410.4219,85.6309 1413.3125,85.6309 C1414.5313,85.6309 1415.6875,85.334 1416.4375,84.7871 C1417.0156,84.3809 1417.3438,83.9278 1417.3438,83.5371 C1417.3438,83.084 1416.9531,82.6934 1416.4844,82.6934 C1416.2656,82.6934 1416.0625,82.7715 1415.875,82.959 C1415.4219,83.4434 1415.4219,83.4434 1415.2344,83.5371 C1414.8125,83.8028 1414.125,83.9278 1413.3594,83.9278 C1411.3125,83.9278 1410.0156,82.834 1410.0156,81.1309 L1410.0156,80.0371 C1410.0156,78.2559 1411.2656,76.9434 1413,76.9434 C1413.5781,76.9434 1414.1875,77.0996 1414.6563,77.3496 C1415.1406,77.6309 1415.3125,77.8496 1415.4063,78.2559 C1415.4688,78.6621 1415.5,78.7871 1415.6406,78.9121 C1415.7813,79.0528 1416.0156,79.1621 1416.2344,79.1621 C1416.5,79.1621 1416.7656,79.0215 1416.9375,78.8028 C1417.0469,78.6465 1417.0781,78.459 1417.0781,78.0371 L1417.0781,76.6153 C1417.0781,76.1778 1417.0625,76.0528 1416.9688,75.8965 C1416.8125,75.6309 1416.5313,75.4903 1416.2344,75.4903 C1415.9375,75.4903 1415.7344,75.584 1415.5156,75.8965 L1415.3438,75.8184 Z "/><text fill="#000000" font-family="sans-serif" font-size="12" lengthAdjust="spacingAndGlyphs" textLength="78" x="1427" y="84.1545">WorkItemType</text><rect fill="#FEFECE" filter="url(#f1)" height="32" style="stroke: #A80036; stroke-width: 1.5;" width="82" x="1543" y="64.1465"/><ellipse cx="1558" cy="80.1465" fill="#ADD1B2" rx="11" ry="11" style="stroke: #A80036; stroke-width: 1.0;"/><path d="M1560.3438,75.8184 C1559.4063,75.3809 1558.8125,75.2403 1557.9375,75.2403 C1555.3125,75.2403 1553.3125,77.3184 1553.3125,80.0371 L1553.3125,81.1621 C1553.3125,83.7403 1555.4219,85.6309 1558.3125,85.6309 C1559.5313,85.6309 1560.6875,85.334 1561.4375,84.7871 C1562.0156,84.3809 1562.3438,83.9278 1562.3438,83.5371 C1562.3438,83.084 1561.9531,82.6934 1561.4844,82.6934 C1561.2656,82.6934 1561.0625,82.7715 1560.875,82.959 C1560.4219,83.4434 1560.4219,83.4434 1560.2344,83.5371 C1559.8125,83.8028 1559.125,83.9278 1558.3594,83.9278 C1556.3125,83.9278 1555.0156,82.834 1555.0156,81.1309 L1555.0156,80.0371 C1555.0156,78.2559 1556.2656,76.9434 1558,76.9434 C1558.5781,76.9434 1559.1875,77.0996 1559.6563,77.3496 C1560.1406,77.6309 1560.3125,77.8496 1560.4063,78.2559 C1560.4688,78.6621 1560.5,78.7871 1560.6406,78.9121 C1560.7813,79.0528 1561.0156,79.1621 1561.2344,79.1621 C1561.5,79.1621 1561.7656,79.0215 1561.9375,78.8028 C1562.0469,78.6465 1562.0781,78.459 1562.0781,78.0371 L1562.0781,76.6153 C1562.0781,76.1778 1562.0625,76.0528 1561.9688,75.8965 C1561.8125,75.6309 1561.5313,75.4903 1561.2344,75.4903 C1560.9375,75.4903 1560.7344,75.584 1560.5156,75.8965 L1560.3438,75.8184 Z "/><text fill="#000000" font-family="sans-serif" font-size="12" lengthAdjust="spacingAndGlyphs" textLength="50" x="1572" y="84.1545">Category</text><rect fill="#FEFECE" filter="url(#f1)" height="32" style="stroke: #A80036; stroke-width: 1.5;" width="55" x="1049.5" y="64.1465"/><ellipse cx="1064.5" cy="80.1465" fill="#ADD1B2" rx="11" ry="11" style="stroke: #A80036; stroke-width: 1.0;"/><path d="M1066.8438,75.8184 C1065.9063,75.3809 1065.3125,75.2403 1064.4375,75.2403 C1061.8125,75.2403 1059.8125,77.3184 1059.8125,80.0371 L1059.8125,81.1621 C1059.8125,83.7403 1061.9219,85.6309 1064.8125,85.6309 C1066.0313,85.6309 1067.1875,85.334 1067.9375,84.7871 C1068.5156,84.3809 1068.8438,83.9278 1068.8438,83.5371 C1068.8438,83.084 1068.4531,82.6934 1067.9844,82.6934 C1067.7656,82.6934 1067.5625,82.7715 1067.375,82.959 C1066.9219,83.4434 1066.9219,83.4434 1066.7344,83.5371 C1066.3125,83.8028 1065.625,83.9278 1064.8594,83.9278 C1062.8125,83.9278 1061.5156,82.834 1061.5156,81.1309 L1061.5156,80.0371 C1061.5156,78.2559 1062.7656,76.9434 1064.5,76.9434 C1065.0781,76.9434 1065.6875,77.0996 1066.1563,77.3496 C1066.6406,77.6309 1066.8125,77.8496 1066.9063,78.2559 C1066.9688,78.6621 1067,78.7871 1067.1406,78.9121 C1067.2813,79.0528 1067.5156,79.1621 1067.7344,79.1621 C1068,79.1621 1068.2656,79.0215 1068.4375,78.8028 C1068.5469,78.6465 1068.5781,78.459 1068.5781,78.0371 L1068.5781,76.6153 C1068.5781,76.1778 1068.5625,76.0528 1068.4688,75.8965 C1068.3125,75.6309 1068.0313,75.4903 1067.7344,75.4903 C1067.4375,75.4903 1067.2344,75.584 1067.0156,75.8965 L1066.8438,75.8184 Z "/><text fill="#000000" font-family="sans-serif" font-size="12" lengthAdjust="spacingAndGlyphs" textLength="23" x="1078.5" y="84.1545">Link</text><rect fill="#FEFECE" filter="url(#f1)" height="32" style="stroke: #A80036; stroke-width: 1.5;" width="82" x="1140" y="64.1465"/><ellipse cx="1155" cy="80.1465" fill="#ADD1B2" rx="11" ry="11" style="stroke: #A80036; stroke-width: 1.0;"/><path d="M1157.3438,75.8184 C1156.4063,75.3809 1155.8125,75.2403 1154.9375,75.2403 C1152.3125,75.2403 1150.3125,77.3184 1150.3125,80.0371 L1150.3125,81.1621 C1150.3125,83.7403 1152.4219,85.6309 1155.3125,85.6309 C1156.5313,85.6309 1157.6875,85.334 1158.4375,84.7871 C1159.0156,84.3809 1159.3438,83.9278 1159.3438,83.5371 C1159.3438,83.084 1158.9531,82.6934 1158.4844,82.6934 C1158.2656,82.6934 1158.0625,82.7715 1157.875,82.959 C1157.4219,83.4434 1157.4219,83.4434 1157.2344,83.5371 C1156.8125,83.8028 1156.125,83.9278 1155.3594,83.9278 C1153.3125,83.9278 1152.0156,82.834 1152.0156,81.1309 L1152.0156,80.0371 C1152.0156,78.2559 1153.2656,76.9434 1155,76.9434 C1155.5781,76.9434 1156.1875,77.0996 1156.6563,77.3496 C1157.1406,77.6309 1157.3125,77.8496 1157.4063,78.2559 C1157.4688,78.6621 1157.5,78.7871 1157.6406,78.9121 C1157.7813,79.0528 1158.0156,79.1621 1158.2344,79.1621 C1158.5,79.1621 1158.7656,79.0215 1158.9375,78.8028 C1159.0469,78.6465 1159.0781,78.459 1159.0781,78.0371 L1159.0781,76.6153 C1159.0781,76.1778 1159.0625,76.0528 1158.9688,75.8965 C1158.8125,75.6309 1158.5313,75.4903 1158.2344,75.4903 C1157.9375,75.4903 1157.7344,75.584 1157.5156,75.8965 L1157.3438,75.8184 Z "/><text fill="#000000" font-family="sans-serif" font-size="12" lengthAdjust="spacingAndGlyphs" textLength="50" x="1169" y="84.1545">LinkType</text><rect fill="#FEFECE" filter="url(#f1)" height="32" style="stroke: #A80036; stroke-width: 1.5;" width="105" x="1257.5" y="64.1465"/><ellipse cx="1272.5" cy="80.1465" fill="#ADD1B2" rx="11" ry="11" style="stroke: #A80036; stroke-width: 1.0;"/><path d="M1274.8438,75.8184 C1273.9063,75.3809 1273.3125,75.2403 1272.4375,75.2403 C1269.8125,75.2403 1267.8125,77.3184 1267.8125,80.0371 L1267.8125,81.1621 C1267.8125,83.7403 1269.9219,85.6309 1272.8125,85.6309 C1274.0313,85.6309 1275.1875,85.334 1275.9375,84.7871 C1276.5156,84.3809 1276.8438,83.9278 1276.8438,83.5371 C1276.8438,83.084 1276.4531,82.6934 1275.9844,82.6934 C1275.7656,82.6934 1275.5625,82.7715 1275.375,82.959 C1274.9219,83.4434 1274.9219,83.4434 1274.7344,83.5371 C1274.3125,83.8028 1273.625,83.9278 1272.8594,83.9278 C1270.8125,83.9278 1269.5156,82.834 1269.5156,81.1309 L1269.5156,80.0371 C1269.5156,78.2559 1270.7656,76.9434 1272.5,76.9434 C1273.0781,76.9434 1273.6875,77.0996 1274.1563,77.3496 C1274.6406,77.6309 1274.8125,77.8496 1274.9063,78.2559 C1274.9688,78.6621 1275,78.7871 1275.1406,78.9121 C1275.2813,79.0528 1275.5156,79.1621 1275.7344,79.1621 C1276,79.1621 1276.2656,79.0215 1276.4375,78.8028 C1276.5469,78.6465 1276.5781,78.459 1276.5781,78.0371 L1276.5781,76.6153 C1276.5781,76.1778 1276.5625,76.0528 1276.4688,75.8965 C1276.3125,75.6309 1276.0313,75.4903 1275.7344,75.4903 C1275.4375,75.4903 1275.2344,75.584 1275.0156,75.8965 L1274.8438,75.8184 Z "/><text fill="#000000" font-family="sans-serif" font-size="12" lengthAdjust="spacingAndGlyphs" textLength="73" x="1286.5" y="84.1545">LinkCategory</text><rect fill="#FEFECE" filter="url(#f1)" height="32" style="stroke: #A80036; stroke-width: 1.5;" width="91" x="667.5" y="64.1465"/><ellipse cx="682.5" cy="80.1465" fill="#ADD1B2" rx="11" ry="11" style="stroke: #A80036; stroke-width: 1.0;"/><path d="M684.8438,75.8184 C683.9063,75.3809 683.3125,75.2403 682.4375,75.2403 C679.8125,75.2403 677.8125,77.3184 677.8125,80.0371 L677.8125,81.1621 C677.8125,83.7403 679.9219,85.6309 682.8125,85.6309 C684.0313,85.6309 685.1875,85.334 685.9375,84.7871 C686.5156,84.3809 686.8438,83.9278 686.8438,83.5371 C686.8438,83.084 686.4531,82.6934 685.9844,82.6934 C685.7656,82.6934 685.5625,82.7715 685.375,82.959 C684.9219,83.4434 684.9219,83.4434 684.7344,83.5371 C684.3125,83.8028 683.625,83.9278 682.8594,83.9278 C680.8125,83.9278 679.5156,82.834 679.5156,81.1309 L679.5156,80.0371 C679.5156,78.2559 680.7656,76.9434 682.5,76.9434 C683.0781,76.9434 683.6875,77.0996 684.1563,77.3496 C684.6406,77.6309 684.8125,77.8496 684.9063,78.2559 C684.9688,78.6621 685,78.7871 685.1406,78.9121 C685.2813,79.0528 685.5156,79.1621 685.7344,79.1621 C686,79.1621 686.2656,79.0215 686.4375,78.8028 C686.5469,78.6465 686.5781,78.459 686.5781,78.0371 L686.5781,76.6153 C686.5781,76.1778 686.5625,76.0528 686.4688,75.8965 C686.3125,75.6309 686.0313,75.4903 685.7344,75.4903 C685.4375,75.4903 685.2344,75.584 685.0156,75.8965 L684.8438,75.8184 Z "/><text fill="#000000" font-family="sans-serif" font-size="12" lengthAdjust="spacingAndGlyphs" textLength="59" x="696.5" y="84.1545">Repository</text><rect fill="#FEFECE" filter="url(#f1)" height="32" style="stroke: #A80036; stroke-width: 1.5;" width="102" x="794" y="64.1465"/><ellipse cx="809" cy="80.1465" fill="#ADD1B2" rx="11" ry="11" style="stroke: #A80036; stroke-width: 1.0;"/><path d="M811.3438,75.8184 C810.4063,75.3809 809.8125,75.2403 808.9375,75.2403 C806.3125,75.2403 804.3125,77.3184 804.3125,80.0371 L804.3125,81.1621 C804.3125,83.7403 806.4219,85.6309 809.3125,85.6309 C810.5313,85.6309 811.6875,85.334 812.4375,84.7871 C813.0156,84.3809 813.3438,83.9278 813.3438,83.5371 C813.3438,83.084 812.9531,82.6934 812.4844,82.6934 C812.2656,82.6934 812.0625,82.7715 811.875,82.959 C811.4219,83.4434 811.4219,83.4434 811.2344,83.5371 C810.8125,83.8028 810.125,83.9278 809.3594,83.9278 C807.3125,83.9278 806.0156,82.834 806.0156,81.1309 L806.0156,80.0371 C806.0156,78.2559 807.2656,76.9434 809,76.9434 C809.5781,76.9434 810.1875,77.0996 810.6563,77.3496 C811.1406,77.6309 811.3125,77.8496 811.4063,78.2559 C811.4688,78.6621 811.5,78.7871 811.6406,78.9121 C811.7813,79.0528 812.0156,79.1621 812.2344,79.1621 C812.5,79.1621 812.7656,79.0215 812.9375,78.8028 C813.0469,78.6465 813.0781,78.459 813.0781,78.0371 L813.0781,76.6153 C813.0781,76.1778 813.0625,76.0528 812.9688,75.8965 C812.8125,75.6309 812.5313,75.4903 812.2344,75.4903 C811.9375,75.4903 811.7344,75.584 811.5156,75.8965 L811.3438,75.8184 Z "/><text fill="#000000" font-family="sans-serif" font-size="12" lengthAdjust="spacingAndGlyphs" textLength="70" x="823" y="84.1545">Organization</text><rect fill="#FEFECE" filter="url(#f1)" height="32" style="stroke: #A80036; stroke-width: 1.5;" width="58" x="198" y="64.1465"/><ellipse cx="213" cy="80.1465" fill="#ADD1B2" rx="11" ry="11" style="stroke: #A80036; stroke-width: 1.0;"/><path d="M215.3438,75.8184 C214.4063,75.3809 213.8125,75.2403 212.9375,75.2403 C210.3125,75.2403 208.3125,77.3184 208.3125,80.0371 L208.3125,81.1621 C208.3125,83.7403 210.4219,85.6309 213.3125,85.6309 C214.5313,85.6309 215.6875,85.334 216.4375,84.7871 C217.0156,84.3809 217.3438,83.9278 217.3438,83.5371 C217.3438,83.084 216.9531,82.6934 216.4844,82.6934 C216.2656,82.6934 216.0625,82.7715 215.875,82.959 C215.4219,83.4434 215.4219,83.4434 215.2344,83.5371 C214.8125,83.8028 214.125,83.9278 213.3594,83.9278 C211.3125,83.9278 210.0156,82.834 210.0156,81.1309 L210.0156,80.0371 C210.0156,78.2559 211.2656,76.9434 213,76.9434 C213.5781,76.9434 214.1875,77.0996 214.6563,77.3496 C215.1406,77.6309 215.3125,77.8496 215.4063,78.2559 C215.4688,78.6621 215.5,78.7871 215.6406,78.9121 C215.7813,79.0528 216.0156,79.1621 216.2344,79.1621 C216.5,79.1621 216.7656,79.0215 216.9375,78.8028 C217.0469,78.6465 217.0781,78.459 217.0781,78.0371 L217.0781,76.6153 C217.0781,76.1778 217.0625,76.0528 216.9688,75.8965 C216.8125,75.6309 216.5313,75.4903 216.2344,75.4903 C215.9375,75.4903 215.7344,75.584 215.5156,75.8965 L215.3438,75.8184 Z "/><text fill="#000000" font-family="sans-serif" font-size="12" lengthAdjust="spacingAndGlyphs" textLength="26" x="227" y="84.1545">Area</text><rect fill="#FEFECE" filter="url(#f1)" height="32" style="stroke: #A80036; stroke-width: 1.5;" width="76" x="1660" y="64.1465"/><ellipse cx="1675" cy="80.1465" fill="#ADD1B2" rx="11" ry="11" style="stroke: #A80036; stroke-width: 1.0;"/><path d="M1677.3438,75.8184 C1676.4063,75.3809 1675.8125,75.2403 1674.9375,75.2403 C1672.3125,75.2403 1670.3125,77.3184 1670.3125,80.0371 L1670.3125,81.1621 C1670.3125,83.7403 1672.4219,85.6309 1675.3125,85.6309 C1676.5313,85.6309 1677.6875,85.334 1678.4375,84.7871 C1679.0156,84.3809 1679.3438,83.9278 1679.3438,83.5371 C1679.3438,83.084 1678.9531,82.6934 1678.4844,82.6934 C1678.2656,82.6934 1678.0625,82.7715 1677.875,82.959 C1677.4219,83.4434 1677.4219,83.4434 1677.2344,83.5371 C1676.8125,83.8028 1676.125,83.9278 1675.3594,83.9278 C1673.3125,83.9278 1672.0156,82.834 1672.0156,81.1309 L1672.0156,80.0371 C1672.0156,78.2559 1673.2656,76.9434 1675,76.9434 C1675.5781,76.9434 1676.1875,77.0996 1676.6563,77.3496 C1677.1406,77.6309 1677.3125,77.8496 1677.4063,78.2559 C1677.4688,78.6621 1677.5,78.7871 1677.6406,78.9121 C1677.7813,79.0528 1678.0156,79.1621 1678.2344,79.1621 C1678.5,79.1621 1678.7656,79.0215 1678.9375,78.8028 C1679.0469,78.6465 1679.0781,78.459 1679.0781,78.0371 L1679.0781,76.6153 C1679.0781,76.1778 1679.0625,76.0528 1678.9688,75.8965 C1678.8125,75.6309 1678.5313,75.4903 1678.2344,75.4903 C1677.9375,75.4903 1677.7344,75.584 1677.5156,75.8965 L1677.3438,75.8184 Z "/><text fill="#000000" font-family="sans-serif" font-size="12" lengthAdjust="spacingAndGlyphs" textLength="44" x="1689" y="84.1545">Iteration</text><path d="M55.2989,60.6419 C67.167,50.6162 83.0234,39.42 99.5,34.1465 C189.873,5.2217 435.548,7.0984 526.5,34.1465 C544.12,39.3864 561.444,50.582 574.51,60.6159 " fill="none" style="stroke: #A80036; stroke-width: 1.0;"/><polygon fill="#A80036" points="578.773,63.9639,574.1662,55.2589,574.841,60.8753,569.2245,61.5501,578.773,63.9639" style="stroke: #A80036; stroke-width: 1.0;"/><polygon fill="#A80036" points="51.4318,63.9869,60.8555,61.1243,55.2134,60.7159,55.6219,55.0738,51.4318,63.9869" style="stroke: #A80036; stroke-width: 1.0;"/><text fill="#000000" font-family="sans-serif" font-size="13" lengthAdjust="spacingAndGlyphs" textLength="22" x="31.2311" y="52.3886">0..1</text><text fill="#000000" font-family="sans-serif" font-size="13" lengthAdjust="spacingAndGlyphs" textLength="20" x="549.4228" y="52.358">0..*</text><path d="M51.4318,63.9869 C63.59,53.2232 81.1609,40.0161 99.5,34.1465 C173.576,10.4376 199.382,13.9805 274.5,34.1465 C294.04,39.3921 313.739,50.7369 328.639,60.8469 " fill="none" style="stroke: #A80036; stroke-width: 1.0;"/><polygon fill="#A80036" points="333.104,63.9367,327.9801,55.5257,328.9927,61.0912,323.4272,62.1038,333.104,63.9367" style="stroke: #A80036; stroke-width: 1.0;"/><text fill="#000000" font-family="sans-serif" font-size="13" lengthAdjust="spacingAndGlyphs" textLength="7" x="58.0342" y="52.3886">1</text><text fill="#000000" font-family="sans-serif" font-size="13" lengthAdjust="spacingAndGlyphs" textLength="20" x="302.8697" y="52.3218">1..*</text><path d="M55.2989,60.6419 C67.167,50.6162 83.0234,39.42 99.5,34.1465 C187.069,6.1192 1666.73,6.7488 1754.5,34.1465 C1771.36,39.408 1787.7,50.604 1799.97,60.6327 " fill="none" style="stroke: #A80036; stroke-width: 1.0;"/><polygon fill="#A80036" points="1803.97,63.9787,1799.6421,55.1317,1800.1381,60.7668,1794.503,61.2627,1803.97,63.9787" style="stroke: #A80036; stroke-width: 1.0;"/><polygon fill="#A80036" points="51.4318,63.9869,60.8555,61.1243,55.2134,60.7159,55.6219,55.0738,51.4318,63.9869" style="stroke: #A80036; stroke-width: 1.0;"/><text fill="#000000" font-family="sans-serif" font-size="13" lengthAdjust="spacingAndGlyphs" textLength="7" x="48.7155" y="52.3886">1</text><text fill="#000000" font-family="sans-serif" font-size="13" lengthAdjust="spacingAndGlyphs" textLength="20" x="1775.0163" y="52.3777">1..*</text><path d="M993.009,63.9449 C1007.67,53.1614 1028.59,39.948 1049.5,34.1465 C1124.98,13.2004 1679.73,10.8046 1754.5,34.1465 C1771.36,39.408 1787.7,50.604 1799.97,60.6327 " fill="none" style="stroke: #A80036; stroke-width: 1.0;"/><polygon fill="#A80036" points="1803.97,63.9787,1799.6421,55.1317,1800.1381,60.7668,1794.503,61.2627,1803.97,63.9787" style="stroke: #A80036; stroke-width: 1.0;"/><text fill="#000000" font-family="sans-serif" font-size="13" lengthAdjust="spacingAndGlyphs" textLength="20" x="976.3245" y="52.3327">0..*</text><text fill="#000000" font-family="sans-serif" font-size="13" lengthAdjust="spacingAndGlyphs" textLength="20" x="1801.6413" y="52.3777">1..*</text><path d="M398.789,80.1465 C408.604,80.1465 418.419,80.1465 428.234,80.1465 " fill="none" style="stroke: #A80036; stroke-width: 1.0;"/><polygon fill="#A80036" points="433.367,80.1465,424.367,76.1465,428.367,80.1465,424.367,84.1465,433.367,80.1465" style="stroke: #A80036; stroke-width: 1.0;"/><text fill="#000000" font-family="sans-serif" font-size="13" lengthAdjust="spacingAndGlyphs" textLength="20" x="405.4022" y="75.2612">1..*</text><text fill="#000000" font-family="sans-serif" font-size="13" lengthAdjust="spacingAndGlyphs" textLength="20" x="405.403" y="93.6671">0..*</text><path d="M148.332,63.9748 C161.119,53.2054 179.528,39.9965 198.5,34.1465 C230.778,24.1937 241.877,25.3887 274.5,34.1465 C294.04,39.3921 313.739,50.7369 328.639,60.8469 " fill="none" style="stroke: #A80036; stroke-width: 1.0;"/><polygon fill="#A80036" points="333.104,63.9367,327.9801,55.5257,328.9927,61.0912,323.4272,62.1038,333.104,63.9367" style="stroke: #A80036; stroke-width: 1.0;"/><text fill="#000000" font-family="sans-serif" font-size="13" lengthAdjust="spacingAndGlyphs" textLength="7" x="155.2326" y="52.3725">1</text><text fill="#000000" font-family="sans-serif" font-size="13" lengthAdjust="spacingAndGlyphs" textLength="20" x="329.4947" y="52.3218">1..*</text><path d="M256.293,74.5453 C274.124,73.2482 291,75.1152 291,80.1465 C291,84.6667 277.378,86.6329 261.68,86.045 " fill="none" style="stroke: #A80036; stroke-width: 1.0;"/><polygon fill="#A80036" points="256.293,85.7477,265.0587,90.2379,261.2854,86.0234,265.4999,82.2501,256.293,85.7477" style="stroke: #A80036; stroke-width: 1.0;"/><text fill="#000000" font-family="sans-serif" font-size="13" lengthAdjust="spacingAndGlyphs" textLength="22" x="263.9739" y="68.3505">0..1</text><text fill="#000000" font-family="sans-serif" font-size="13" lengthAdjust="spacingAndGlyphs" textLength="20" x="264.0288" y="100.8237">0..*</text><path d="M162.875,80.1465 C172.829,80.1465 182.784,80.1465 192.738,80.1465 " fill="none" style="stroke: #A80036; stroke-width: 1.0;"/><polygon fill="#A80036" points="197.943,80.1465,188.943,76.1465,192.943,80.1465,188.943,84.1465,197.943,80.1465" style="stroke: #A80036; stroke-width: 1.0;"/><text fill="#000000" font-family="sans-serif" font-size="13" lengthAdjust="spacingAndGlyphs" textLength="20" x="169.9431" y="74.9367">0..*</text><text fill="#000000" font-family="sans-serif" font-size="13" lengthAdjust="spacingAndGlyphs" textLength="20" x="169.8875" y="94.1952">0..*</text><path d="M253.025,61.0998 C268.57,50.9218 289.19,39.4262 309.5,34.1465 C435.749,1.328 770.805,-0.734 896.5,34.1465 C915.446,39.4041 934.403,50.7491 948.706,60.8561 " fill="none" style="stroke: #A80036; stroke-width: 1.0;"/><polygon fill="#A80036" points="952.991,63.9449,948.03,55.4367,948.9353,61.0207,943.3513,61.9259,952.991,63.9449" style="stroke: #A80036; stroke-width: 1.0;"/><polygon fill="#A80036" points="248.779,63.9292,258.4861,62.2642,252.939,61.1553,254.0479,55.6082,248.779,63.9292" style="stroke: #A80036; stroke-width: 1.0;"/><text fill="#000000" font-family="sans-serif" font-size="13" lengthAdjust="spacingAndGlyphs" textLength="20" x="232.6808" y="52.3118">1..*</text><text fill="#000000" font-family="sans-serif" font-size="13" lengthAdjust="spacingAndGlyphs" textLength="7" x="947.5224" y="52.3327">1</text><path d="M152.396,60.6283 C164.864,50.5982 181.455,39.4023 198.5,34.1465 C268.153,12.6694 456.635,13.3695 526.5,34.1465 C544.12,39.3864 561.444,50.582 574.51,60.6159 " fill="none" style="stroke: #A80036; stroke-width: 1.0;"/><polygon fill="#A80036" points="578.773,63.9639,574.1662,55.2589,574.841,60.8753,569.2245,61.5501,578.773,63.9639" style="stroke: #A80036; stroke-width: 1.0;"/><polygon fill="#A80036" points="148.332,63.9748,157.8224,61.3417,152.1918,60.7965,152.737,55.166,148.332,63.9748" style="stroke: #A80036; stroke-width: 1.0;"/><text fill="#000000" font-family="sans-serif" font-size="13" lengthAdjust="spacingAndGlyphs" textLength="20" x="130.7607" y="52.3725">1..*</text><text fill="#000000" font-family="sans-serif" font-size="13" lengthAdjust="spacingAndGlyphs" textLength="7" x="573.8947" y="52.358">1</text><path d="M152.396,60.6283 C164.864,50.5982 181.455,39.4023 198.5,34.1465 C317.42,-2.522 637.753,4.0368 758.5,34.1465 C779.619,39.4128 801.239,50.9085 817.581,61.0897 " fill="none" style="stroke: #A80036; stroke-width: 1.0;"/><polygon fill="#A80036" points="822.046,63.9203,816.5865,55.7231,817.8231,61.2431,812.3031,62.4797,822.046,63.9203" style="stroke: #A80036; stroke-width: 1.0;"/><polygon fill="#A80036" points="148.332,63.9748,157.8224,61.3417,152.1918,60.7965,152.737,55.166,148.332,63.9748" style="stroke: #A80036; stroke-width: 1.0;"/><text fill="#000000" font-family="sans-serif" font-size="13" lengthAdjust="spacingAndGlyphs" textLength="20" x="157.3857" y="52.3725">1..*</text><text fill="#000000" font-family="sans-serif" font-size="13" lengthAdjust="spacingAndGlyphs" textLength="7" x="815.6019" y="52.3">1</text><path d="M619.49,60.6159 C632.556,50.582 649.88,39.3864 667.5,34.1465 C706.267,22.6178 719.257,24.3608 758.5,34.1465 C779.619,39.4128 801.239,50.9085 817.581,61.0897 " fill="none" style="stroke: #A80036; stroke-width: 1.0;"/><polygon fill="#A80036" points="822.046,63.9203,816.5865,55.7231,817.8231,61.2431,812.3031,62.4797,822.046,63.9203" style="stroke: #A80036; stroke-width: 1.0;"/><polygon fill="#A80036" points="615.227,63.9639,624.7755,61.5501,619.159,60.8753,619.8338,55.2589,615.227,63.9639" style="stroke: #A80036; stroke-width: 1.0;"/><text fill="#000000" font-family="sans-serif" font-size="13" lengthAdjust="spacingAndGlyphs" textLength="20" x="624.5772" y="52.358">1..*</text><text fill="#000000" font-family="sans-serif" font-size="13" lengthAdjust="spacingAndGlyphs" textLength="7" x="806.2831" y="52.3">1</text><path d="M619.49,60.6159 C632.556,50.582 649.88,39.3864 667.5,34.1465 C765.055,5.1347 798.428,6.9315 896.5,34.1465 C915.446,39.4041 934.403,50.7491 948.706,60.8561 " fill="none" style="stroke: #A80036; stroke-width: 1.0;"/><polygon fill="#A80036" points="952.991,63.9449,948.03,55.4367,948.9353,61.0207,943.3513,61.9259,952.991,63.9449" style="stroke: #A80036; stroke-width: 1.0;"/><polygon fill="#A80036" points="615.227,63.9639,624.7755,61.5501,619.159,60.8753,619.8338,55.2589,615.227,63.9639" style="stroke: #A80036; stroke-width: 1.0;"/><text fill="#000000" font-family="sans-serif" font-size="13" lengthAdjust="spacingAndGlyphs" textLength="22" x="595.6209" y="52.358">0..1</text><text fill="#000000" font-family="sans-serif" font-size="13" lengthAdjust="spacingAndGlyphs" textLength="20" x="923.0505" y="52.3327">0..*</text><path d="M637.535,80.1465 C645.756,80.1465 653.976,80.1465 662.197,80.1465 " fill="none" style="stroke: #A80036; stroke-width: 1.0;"/><polygon fill="#A80036" points="667.316,80.1465,658.316,76.1465,662.316,80.1465,658.316,84.1465,667.316,80.1465" style="stroke: #A80036; stroke-width: 1.0;"/><polygon fill="#A80036" points="632.344,80.1465,641.344,84.1465,637.344,80.1465,641.344,76.1465,632.344,80.1465" style="stroke: #A80036; stroke-width: 1.0;"/><text fill="#000000" font-family="sans-serif" font-size="13" lengthAdjust="spacingAndGlyphs" textLength="7" x="639.9914" y="74.9698">1</text><text fill="#000000" font-family="sans-serif" font-size="13" lengthAdjust="spacingAndGlyphs" textLength="20" x="639.4854" y="75.4171">0..*</text><path d="M526.617,80.1465 C536.606,80.1465 546.596,80.1465 556.585,80.1465 " fill="none" style="stroke: #A80036; stroke-width: 1.0;"/><polygon fill="#A80036" points="561.809,80.1465,552.809,76.1465,556.809,80.1465,552.809,84.1465,561.809,80.1465" style="stroke: #A80036; stroke-width: 1.0;"/><text fill="#000000" font-family="sans-serif" font-size="13" lengthAdjust="spacingAndGlyphs" textLength="20" x="534.0054" y="75.3179">0..*</text><text fill="#000000" font-family="sans-serif" font-size="13" lengthAdjust="spacingAndGlyphs" textLength="20" x="534.0418" y="93.9186">0..*</text><path d="M997.294,60.8561 C1011.6,50.7491 1030.55,39.4041 1049.5,34.1465 C1172.84,-0.08 1502.58,-1.558 1625.5,34.1465 C1643.66,39.4221 1661.63,50.7672 1675.13,60.8698 " fill="none" style="stroke: #A80036; stroke-width: 1.0;"/><polygon fill="#A80036" points="1679.18,63.9571,1674.466,55.3097,1675.2101,60.9174,1669.6024,61.6615,1679.18,63.9571" style="stroke: #A80036; stroke-width: 1.0;"/><polygon fill="#A80036" points="993.009,63.9449,1002.6487,61.9259,997.0647,61.0207,997.97,55.4367,993.009,63.9449" style="stroke: #A80036; stroke-width: 1.0;"/><text fill="#000000" font-family="sans-serif" font-size="13" lengthAdjust="spacingAndGlyphs" textLength="20" x="1002.9495" y="52.3327">0..*</text><text fill="#000000" font-family="sans-serif" font-size="13" lengthAdjust="spacingAndGlyphs" textLength="22" x="1647.3021" y="52.3489">0..1</text><path d="M993.009,63.9449 C1007.67,53.1614 1028.59,39.948 1049.5,34.1465 C1183.55,-3.051 1227.22,1.738 1362.5,34.1465 C1384.59,39.4385 1407.38,51.0611 1424.56,61.2988 " fill="none" style="stroke: #A80036; stroke-width: 1.0;"/><polygon fill="#A80036" points="1429.25,64.1433,1423.6185,56.0633,1424.9715,61.556,1419.4788,62.9089,1429.25,64.1433" style="stroke: #A80036; stroke-width: 1.0;"/><text fill="#000000" font-family="sans-serif" font-size="13" lengthAdjust="spacingAndGlyphs" textLength="20" x="976.3245" y="52.3327">0..*</text><text fill="#000000" font-family="sans-serif" font-size="13" lengthAdjust="spacingAndGlyphs" textLength="7" x="1412.8828" y="52.2974">1</text><path d="M1019.96,80.1465 C1028.07,80.1465 1036.17,80.1465 1044.27,80.1465 " fill="none" style="stroke: #A80036; stroke-width: 1.0;"/><polygon fill="#A80036" points="1049.32,80.1465,1040.32,76.1465,1044.32,80.1465,1040.32,84.1465,1049.32,80.1465" style="stroke: #A80036; stroke-width: 1.0;"/><polygon fill="#A80036" points="1014.84,80.1465,1023.84,84.1465,1019.84,80.1465,1023.84,76.1465,1014.84,80.1465" style="stroke: #A80036; stroke-width: 1.0;"/><text fill="#000000" font-family="sans-serif" font-size="13" lengthAdjust="spacingAndGlyphs" textLength="7" x="1022.6328" y="75.1686">2</text><text fill="#000000" font-family="sans-serif" font-size="13" lengthAdjust="spacingAndGlyphs" textLength="20" x="1021.5485" y="74.8952">0..*</text><path d="M1736.31,74.293 C1754.73,73.5703 1771,75.5215 1771,80.1465 C1771,84.3379 1757.64,86.3333 1741.42,86.1327 " fill="none" style="stroke: #A80036; stroke-width: 1.0;"/><polygon fill="#A80036" points="1736.31,86,1745.2042,90.2301,1741.3083,86.1286,1745.4099,82.2327,1736.31,86" style="stroke: #A80036; stroke-width: 1.0;"/><text fill="#000000" font-family="sans-serif" font-size="13" lengthAdjust="spacingAndGlyphs" textLength="22" x="1743.8606" y="68.5679">0..1</text><text fill="#000000" font-family="sans-serif" font-size="13" lengthAdjust="spacingAndGlyphs" textLength="20" x="1744.0094" y="100.6044">0..*</text><path d="M1508.01,80.1465 C1517.87,80.1465 1527.73,80.1465 1537.58,80.1465 " fill="none" style="stroke: #A80036; stroke-width: 1.0;"/><polygon fill="#A80036" points="1542.74,80.1465,1533.74,76.1465,1537.74,80.1465,1533.74,84.1465,1542.74,80.1465" style="stroke: #A80036; stroke-width: 1.0;"/><text fill="#000000" font-family="sans-serif" font-size="13" lengthAdjust="spacingAndGlyphs" textLength="20" x="1514.9351" y="75.4129">0..*</text><text fill="#000000" font-family="sans-serif" font-size="13" lengthAdjust="spacingAndGlyphs" textLength="7" x="1528.0469" y="75.1686">1</text><path d="M1104.62,80.1465 C1114.62,80.1465 1124.61,80.1465 1134.6,80.1465 " fill="none" style="stroke: #A80036; stroke-width: 1.0;"/><polygon fill="#A80036" points="1139.83,80.1465,1130.83,76.1465,1134.83,80.1465,1130.83,84.1465,1139.83,80.1465" style="stroke: #A80036; stroke-width: 1.0;"/><text fill="#000000" font-family="sans-serif" font-size="13" lengthAdjust="spacingAndGlyphs" textLength="20" x="1111.9211" y="74.8203">0..*</text><text fill="#000000" font-family="sans-serif" font-size="13" lengthAdjust="spacingAndGlyphs" textLength="7" x="1124.8732" y="75.1189">1</text><path d="M1227.32,80.1465 C1235.64,80.1465 1243.95,80.1465 1252.27,80.1465 " fill="none" style="stroke: #A80036; stroke-width: 1.0;"/><polygon fill="#A80036" points="1257.45,80.1465,1248.45,76.1465,1252.45,80.1465,1248.45,84.1465,1257.45,80.1465" style="stroke: #A80036; stroke-width: 1.0;"/><polygon fill="#A80036" points="1222.07,80.1465,1231.07,84.1465,1227.07,80.1465,1231.07,76.1465,1222.07,80.1465" style="stroke: #A80036; stroke-width: 1.0;"/><text fill="#000000" font-family="sans-serif" font-size="13" lengthAdjust="spacingAndGlyphs" textLength="7" x="1230.009" y="75.1189">1</text><text fill="#000000" font-family="sans-serif" font-size="13" lengthAdjust="spacingAndGlyphs" textLength="20" x="1229.4358" y="75.5165">1..*</text></g></svg>